<?xml version="1.0" encoding="UTF-8"?>
<!DOCTYPE svg PUBLIC "-//W3C//DTD SVG 1.1//EN" "http://www.w3.org/Graphics/SVG/1.1/DTD/svg11.dtd">
<!-- Creator: CorelDRAW 2020 (64-Bit) -->
<svg xmlns="http://www.w3.org/2000/svg" xml:space="preserve" width="512px" height="88px" version="1.1" style="shape-rendering:geometricPrecision; text-rendering:geometricPrecision; image-rendering:optimizeQuality; fill-rule:evenodd; clip-rule:evenodd"
viewBox="0 0 131.39 22.7"
 xmlns:xlink="http://www.w3.org/1999/xlink"
 xmlns:xodm="http://www.corel.com/coreldraw/odm/2003">
 <defs>
  <style type="text/css">
   <![CDATA[
    .fil0 {fill:#F08519;fill-rule:nonzero}
   ]]>
  </style>
 </defs>
 <g id="Layer_x0020_1">
  <metadata id="CorelCorpID_0Corel-Layer"/>
  <path class="fil0" d="M119.53 17.74c0.02,-0.16 0.04,-0.32 0.06,-0.48l0.01 -0.03 0 -0.05c0.02,-0.15 0.04,-0.3 0.07,-0.44l0 -0.01 0 0 0.02 -0.15 0.03 -0.2 0.01 0c1.16,-6.75 4.99,-10.7 8.48,-14.28 0.39,-0.41 0.8,-0.82 1.18,-1.23 0.27,-0.28 0.53,-0.57 0.77,-0.87l0.11 0.13c0.81,1.04 1.14,2 1.12,2.82 -0.01,0.44 -0.13,0.84 -0.32,1.2 -0.2,0.35 -0.48,0.67 -0.82,0.93 -0.43,0.35 -0.98,0.61 -1.59,0.77 0.55,-0.03 1.09,-0.11 1.63,-0.24l0.23 -0.05 -0.1 0.21c-0.43,1 -0.97,1.68 -1.6,2.08 -0.25,0.16 -0.51,0.28 -0.77,0.35 0.26,-0.01 0.53,-0.04 0.79,-0.11l0.27 -0.06 -0.14 0.24c-0.55,0.92 -1.23,1.46 -1.98,1.78l-0.1 0.04c0.2,-0.05 0.4,-0.11 0.59,-0.18l0.28 -0.1 -0.13 0.26c-0.66,1.29 -1.37,2.06 -2.11,2.49 -0.32,0.18 -0.64,0.3 -0.96,0.38 0.15,-0.01 0.3,-0.02 0.45,-0.04l0.28 -0.03 -0.17 0.22c-0.66,0.87 -1.36,1.61 -2.1,2.13 -0.73,0.51 -1.5,0.81 -2.35,0.81 -0.02,0.14 -0.03,0.27 -0.05,0.41l0 0.03 -0.02 0.02 -0.01 0.01 -0.01 0.02 0 0.01 -0.01 0.02 -0.01 0.01 -0.01 0.02 -0.01 0.01 -0.01 0.01 0 0.01 0 0 -0.01 0.01 0 0.01 -0.01 0.01 0 0 -0.01 0.01 0 0 -0.01 0.02 0 0 0 0.01 0 0 -0.01 0.01 0 0 -0.01 0.01 0 0.01 -0.01 0.01 0 0 -0.01 0.01 0 0.01 0 0 -0.01 0.01 0 0.01 -0.01 0 0 0.01 -0.01 0.01 0 0 0 0.01 -0.01 0 0 0.01 0 0.01 -0.01 0.01 0 0 -0.01 0.01 0 0 -0.01 0.01 0 0 0 0.01 -0.01 0.01 0 0.01 0 0 -0.01 0.01 0 0 -0.01 0.01 0 0.01 0 0 -0.01 0.01 0 0 -0.01 0.01 0 0.01 -0.01 0.01 0 0 0 0.01 0 0 -0.01 0.01 0 0 -0.01 0.01 0 0 -0.01 0.02 0 0 -0.01 0.02 0 0 -0.01 0.01 0 0 -0.01 0.01 0 0.01 0 0 -0.01 0.01 0 0 0 0.01 -0.01 0.01 0 0 -0.01 0.01 0 0 0 0.01 -0.01 0.01 0 0 0 0.01 -0.02 0.02 0 0 -0.04 0.07 0 0 -0.07 0.1 -0.04 0.07 -0.01 0.01 -0.01 0.02 0 0.01 -0.05 0.06 0 0 -0.02 0.04 0 0 -0.01 0.01 0 0.01 -0.01 0 0 0 0 0.01 -0.01 0.01 0 0 -0.01 0.01 0 0 0 0.01 -0.01 0 0 0.01 -0.01 0.01 0 0 -0.01 0.01 0 0 0 0.01 -0.01 0.01 0 0 0 0.01 0 0 -0.01 0 0 0 0 0.01 0 0 -0.01 0.01 0 0 0 0 0 0.01 -0.01 0 0 0 0 0.01 0 0 -0.01 0.01 0 0 0 0 0 0.01 -0.01 0 0 0 0 0.01 0 0 0 0 -0.01 0.01 0 0 0 0 0 0.01 -0.01 0 0 0 0 0.01 0 0 -0.01 0 0 0 0 0.01 0 0 0 0.01 -0.01 0 0 0 0 0 0 0.01 0 0 -0.01 0 0 0.01 0 0 0 0 -0.01 0.01 0 0 0 0 0 0 0 0.01 -0.01 0 0 0 0 0.01 0 0 0 0 -0.01 0 0 0.01 0 0 0 0 0 0 -0.01 0.01 -0.26 0.35 0 0 0 0 0.01 -0.07 0.04 -0.36zm-26.25 4.64l-3.15 0 -5.71 -10.51 -1.06 10.51 -3.5 0c0.55,-5.44 1.09,-10.87 1.64,-16.31l3.81 0 5.35 9.74 0.98 -9.74 3.5 0 -1.64 16.31 -0.22 0zm-2.86 -0.5l2.63 0 1.54 -15.31 -2.5 0 -1.1 10.89 -5.97 -10.89 -3.07 0 -1.54 15.31 2.5 0 1.18 -11.66 6.33 11.66zm18.05 -5.46c-0.01,0.11 -0.02,0.21 -0.04,0.3 -0.01,0.1 -0.03,0.2 -0.05,0.3l-0.06 0.3 -0.12 0.51 -9 0 0.05 0.15c0.05,0.14 0.12,0.29 0.19,0.42 0.08,0.14 0.16,0.26 0.25,0.38 0.1,0.12 0.2,0.23 0.32,0.32 0.11,0.1 0.24,0.19 0.37,0.27 0.14,0.08 0.29,0.15 0.44,0.2 0.15,0.06 0.32,0.1 0.49,0.13 0.18,0.03 0.36,0.05 0.56,0.05 0.49,0 0.99,-0.09 1.49,-0.26 0.25,-0.08 0.49,-0.18 0.7,-0.3 0.22,-0.11 0.41,-0.24 0.58,-0.38l0.18 -0.14 1.97 2.18 -0.23 0.16c-0.44,0.3 -0.86,0.56 -1.28,0.77 -0.42,0.22 -0.84,0.39 -1.24,0.52 -0.4,0.12 -0.81,0.22 -1.23,0.28 -0.42,0.06 -0.85,0.09 -1.28,0.09 -0.44,0 -0.87,-0.04 -1.28,-0.12 -0.41,-0.08 -0.8,-0.21 -1.17,-0.37 -0.38,-0.17 -0.72,-0.36 -1.04,-0.58 -0.31,-0.23 -0.6,-0.48 -0.86,-0.77 -0.25,-0.28 -0.48,-0.59 -0.67,-0.92 -0.19,-0.33 -0.35,-0.69 -0.48,-1.07 -0.13,-0.39 -0.21,-0.78 -0.25,-1.19 -0.05,-0.41 -0.04,-0.83 0,-1.26 0.04,-0.43 0.13,-0.85 0.25,-1.25 0.12,-0.4 0.28,-0.8 0.49,-1.18 0.2,-0.38 0.43,-0.74 0.69,-1.06 0.26,-0.33 0.54,-0.64 0.86,-0.92 0.31,-0.28 0.65,-0.53 1,-0.75 0.36,-0.22 0.74,-0.41 1.13,-0.58 0.41,-0.16 0.82,-0.28 1.23,-0.37 0.42,-0.08 0.85,-0.12 1.29,-0.12 0.41,0 0.82,0.04 1.21,0.12 0.4,0.07 0.78,0.19 1.15,0.34 0.37,0.16 0.71,0.34 1.03,0.56 0.32,0.21 0.62,0.46 0.89,0.74 0.26,0.27 0.5,0.58 0.7,0.91 0.2,0.33 0.37,0.68 0.51,1.07 0.13,0.38 0.22,0.78 0.26,1.21 0.05,0.42 0.05,0.85 0,1.31zm-0.53 0.22c0.02,-0.1 0.03,-0.19 0.04,-0.27 0.04,-0.42 0.04,-0.83 0,-1.21 -0.04,-0.39 -0.12,-0.75 -0.24,-1.1 -0.12,-0.35 -0.28,-0.67 -0.46,-0.97 -0.18,-0.3 -0.4,-0.58 -0.64,-0.83 -0.24,-0.25 -0.51,-0.47 -0.8,-0.67 -0.3,-0.2 -0.61,-0.36 -0.95,-0.51 -0.34,-0.14 -0.69,-0.24 -1.05,-0.32 -0.36,-0.07 -0.74,-0.1 -1.12,-0.1 -0.41,0 -0.81,0.04 -1.19,0.11 -0.39,0.08 -0.77,0.19 -1.14,0.34 -0.37,0.16 -0.72,0.34 -1.05,0.54 -0.34,0.21 -0.65,0.44 -0.94,0.7 -0.29,0.26 -0.56,0.55 -0.8,0.85 -0.24,0.31 -0.46,0.64 -0.65,0.99 -0.18,0.35 -0.33,0.71 -0.45,1.09 -0.11,0.38 -0.19,0.76 -0.23,1.16 -0.04,0.4 -0.04,0.79 0,1.16 0.04,0.37 0.12,0.73 0.23,1.08 0.12,0.35 0.26,0.68 0.44,0.98 0.17,0.3 0.38,0.58 0.61,0.84 0.24,0.26 0.5,0.49 0.78,0.69 0.29,0.21 0.61,0.38 0.95,0.53 0.34,0.16 0.69,0.27 1.07,0.34 0.37,0.08 0.76,0.12 1.18,0.12 0.41,0 0.81,-0.03 1.2,-0.09 0.4,-0.06 0.78,-0.15 1.16,-0.27 0.38,-0.12 0.77,-0.28 1.16,-0.48 0.33,-0.16 0.65,-0.36 0.99,-0.58l-1.27 -1.42c-0.15,0.11 -0.31,0.21 -0.47,0.29 -0.24,0.13 -0.5,0.24 -0.78,0.33 -0.56,0.19 -1.11,0.28 -1.65,0.28 -0.22,0 -0.43,-0.01 -0.64,-0.05 -0.2,-0.03 -0.4,-0.08 -0.58,-0.15 -0.18,-0.07 -0.36,-0.15 -0.51,-0.24 -0.16,-0.09 -0.32,-0.2 -0.45,-0.32 -0.14,-0.12 -0.27,-0.25 -0.38,-0.39 -0.12,-0.14 -0.22,-0.29 -0.3,-0.45 -0.09,-0.16 -0.16,-0.32 -0.23,-0.49 -0.06,-0.17 -0.11,-0.34 -0.15,-0.51l-0.07 -0.31 9.24 0 0.09 -0.41c0.02,-0.1 0.04,-0.19 0.05,-0.28zm-2.91 -1.6c-0.07,-0.22 -0.16,-0.42 -0.26,-0.61 -0.16,-0.26 -0.36,-0.5 -0.6,-0.7 -0.24,-0.2 -0.5,-0.35 -0.79,-0.45 -0.29,-0.1 -0.6,-0.15 -0.93,-0.15 -0.33,0 -0.65,0.05 -0.95,0.15 -0.31,0.1 -0.6,0.26 -0.89,0.46 -0.28,0.21 -0.53,0.45 -0.75,0.72 -0.14,0.18 -0.26,0.38 -0.37,0.58l5.54 0zm0.17 -0.85c0.18,0.31 0.31,0.66 0.39,1.05l0.07 0.3 -6.93 0 0.14 -0.34c0.16,-0.39 0.36,-0.73 0.6,-1.04 0.24,-0.31 0.52,-0.58 0.85,-0.82 0.33,-0.23 0.67,-0.41 1.02,-0.53 0.36,-0.12 0.73,-0.18 1.11,-0.18 0.39,0 0.75,0.06 1.1,0.18 0.34,0.12 0.65,0.3 0.94,0.54 0.29,0.24 0.52,0.52 0.71,0.84zm10.74 7.9c-0.17,0.09 -0.34,0.18 -0.53,0.26 -0.18,0.07 -0.38,0.13 -0.59,0.18 -0.2,0.05 -0.41,0.08 -0.61,0.11 -0.2,0.02 -0.41,0.03 -0.61,0.03 -0.7,0 -1.28,-0.08 -1.76,-0.26 -0.24,-0.09 -0.46,-0.2 -0.65,-0.35 -0.19,-0.14 -0.36,-0.31 -0.49,-0.5 -0.14,-0.19 -0.25,-0.4 -0.33,-0.64 -0.09,-0.24 -0.15,-0.49 -0.19,-0.77 -0.04,-0.28 -0.05,-0.57 -0.05,-0.9 -0.01,-0.32 0.01,-0.66 0.05,-1.02l0.48 -4.73 -1.51 0 0.31 -3.06 1.5 0 0.13 -1.23 1.43 -2.11 2.12 0 -0.33 3.34 2.88 0 -0.3 3.06 -2.89 0 -0.5 4.98c-0.01,0.13 -0.02,0.25 -0.01,0.36 0,0.1 0.02,0.18 0.04,0.26 0.02,0.07 0.05,0.13 0.08,0.19 0.03,0.05 0.06,0.1 0.1,0.13 0.03,0.04 0.08,0.07 0.12,0.1 0.05,0.02 0.1,0.04 0.15,0.06 0.06,0.01 0.13,0.03 0.2,0.03 0.07,0.01 0.14,0.02 0.21,0.02 0.21,0 0.46,-0.04 0.77,-0.11 0.14,-0.04 0.28,-0.09 0.41,-0.15 0.12,-0.05 0.24,-0.12 0.35,-0.21l0.45 -0.34 -0.32 3.2 -0.11 0.07zm-0.71 -0.21c0.12,-0.05 0.24,-0.1 0.35,-0.16l0.19 -1.89c-0.15,0.07 -0.32,0.13 -0.5,0.17 -0.34,0.08 -0.63,0.13 -0.88,0.13 -0.09,0 -0.18,-0.01 -0.27,-0.02 -0.09,-0.01 -0.18,-0.03 -0.27,-0.05 -0.09,-0.03 -0.18,-0.06 -0.26,-0.11 -0.09,-0.05 -0.16,-0.1 -0.23,-0.17 -0.07,-0.07 -0.13,-0.15 -0.19,-0.25 -0.05,-0.09 -0.09,-0.19 -0.12,-0.3 -0.03,-0.11 -0.05,-0.23 -0.06,-0.37 0,-0.13 0,-0.27 0.02,-0.43l0.54 -5.42 2.89 0 0.2 -2.07 -2.88 0 0.34 -3.34 -1.32 0 -1.21 1.79 -0.16 1.54 -1.5 0 -0.21 2.08 1.5 0 -0.53 5.27c-0.03,0.35 -0.05,0.67 -0.05,0.97 0,0.3 0.02,0.58 0.05,0.83 0.04,0.25 0.09,0.47 0.16,0.67 0.07,0.2 0.16,0.37 0.27,0.52 0.11,0.15 0.23,0.28 0.39,0.4 0.15,0.11 0.32,0.2 0.53,0.28 0.41,0.15 0.94,0.23 1.58,0.23 0.19,0 0.37,-0.01 0.55,-0.04 0.19,-0.02 0.37,-0.05 0.56,-0.09 0.18,-0.05 0.35,-0.1 0.52,-0.17zm14.95 -21.47l-0.01 0.01 -0.01 0.02 -0.01 0.01 -0.01 0.02 -0.01 0.01 -0.01 0.02 -0.01 0.02 -0.01 0.01 -0.01 0.02 -0.01 0.01 -0.02 0.02 0 0.01 -0.02 0.03 0 0 -0.03 0.03 0 0 -0.02 0.03 0 0 -0.02 0.04 0 0 -0.03 0.03 0 0 -0.02 0.03 -0.01 0.01 -0.01 0.02 -0.01 0.02 -0.02 0.02 -0.01 0.01 -0.01 0.02 -0.02 0.02 -0.01 0.01 -0.02 0.02 -0.01 0.02 -0.01 0.02 -0.01 0.01 -0.02 0.03 -0.01 0.01 -0.02 0.03 -0.01 0 -0.02 0.03 0 0.01 -0.03 0.03 0 0 -0.03 0.04 0 0 -0.03 0.03 0 0.01 -0.03 0.03 0 0.01 -0.03 0.03 0 0.01 -0.03 0.02 -0.01 0.02 -0.02 0.02 -0.01 0.02 -0.02 0.02 -0.01 0.02 -0.02 0.02 -0.01 0.02 -0.02 0.02 -0.02 0.02 -0.01 0.01 -0.02 0.03 -0.01 0.01 -0.03 0.03 0 0.01 -0.03 0.04 0 0 -0.04 0.04 0 0 -0.03 0.04 0 0 -0.03 0.04 -0.01 0 -0.03 0.04 0 0.01 -0.03 0.03 -0.01 0.01 -0.02 0.03 -0.02 0.02 -0.02 0.02 -0.01 0.02 -0.02 0.02 -0.02 0.02 -0.02 0.02 -0.02 0.03 -0.01 0.02 -0.03 0.02 -0.01 0.02 -0.02 0.03 -0.01 0.01 -0.03 0.04 -0.01 0 -0.03 0.04 0 0.01 -0.04 0.04 0 0 -0.04 0.04 0 0.01 -0.03 0.04 -0.01 0 -0.03 0.04 -0.01 0.01 -0.03 0.03 -0.01 0.02 -0.03 0.03 -0.01 0.02 -0.02 0.02 -0.02 0.02 -0.02 0.03 -0.02 0.02 -0.02 0.02 -0.02 0.03 -0.02 0.02 -0.03 0.03 -0.01 0.01 -0.03 0.04 -0.01 0.01 -0.03 0.04 -0.01 0.01 -0.03 0.04 0 0 -0.04 0.05 0 0 -0.08 0.09 -0.05 0.06 -0.03 0.03 -0.08 0.1 -0.03 0.03 -0.05 0.06 -0.08 0.09 0 0.01 -0.08 0.09 -0.06 0.06 -0.03 0.04 -0.08 0.1 -0.02 0.03 -0.06 0.07 -0.08 0.09 -0.01 0.01 -0.13 0.16 -0.04 0.04 -0.08 0.1 -0.02 0.03 -0.07 0.08 -0.08 0.09 0 0.01 -0.09 0.11 -0.05 0.06 -0.04 0.04 -0.09 0.11 -0.02 0.02 -0.06 0.09 -0.08 0.09 -0.01 0.02 -0.09 0.1 -0.05 0.06 -0.04 0.06 -0.09 0.11 -0.02 0.02 -0.07 0.09 -0.08 0.09 -0.01 0.02 -0.09 0.11 -0.05 0.06 -0.04 0.06 -0.09 0.11 -0.01 0.02 -0.08 0.1 -0.07 0.09 -0.02 0.02 -0.09 0.12 -0.04 0.06 -0.05 0.06 -0.09 0.12 -0.01 0.01 -0.08 0.1 -0.07 0.1 -0.02 0.02 -0.09 0.12 -0.04 0.06 -0.05 0.07 -0.09 0.12 -0.01 0.01 -0.08 0.11 -0.07 0.1 -0.02 0.02 -0.09 0.13 -0.03 0.05 -0.05 0.07 -0.09 0.13 -0.01 0.01 -0.08 0.11 -0.07 0.1 -0.02 0.03 -0.09 0.13 -0.03 0.05 -0.05 0.07 -0.09 0.13 0 0.01 -0.08 0.12 -0.07 0.09 -0.02 0.04 -0.09 0.13 -0.06 0.1 -0.02 0.03 -0.08 0.13 -0.01 0.01 -0.08 0.12 -0.06 0.09 -0.02 0.04 -0.08 0.14 -0.03 0.04 -0.05 0.09 -0.09 0.13 0 0.01 -0.1 0.18 -0.05 0.08 -0.01 0 -0.07 0.14 -0.03 0.04 -0.05 0.1 -0.01 0.01 -0.11 0.19 -0.04 0.07 1.84 -0.07c0.82,-0.03 1.61,-0.12 2.33,-0.43 0.64,-0.27 1.23,-0.72 1.72,-1.45 -0.28,0.05 -0.57,0.07 -0.85,0.06 -0.38,-0.01 -0.75,-0.06 -1.13,-0.15l-2.21 -0.5 2.25 0.27c0.75,0.09 1.42,-0.03 2.01,-0.4 0.55,-0.36 1.03,-0.93 1.42,-1.77 -0.51,0.11 -0.97,0.16 -1.43,0.18 -0.66,0.03 -1.31,-0.02 -2.06,-0.13 0.41,-0.01 1.19,-0.06 2,-0.3 0.52,-0.16 1.05,-0.39 1.49,-0.74 0.32,-0.25 0.57,-0.54 0.75,-0.86 0.18,-0.33 0.28,-0.7 0.29,-1.1 0.03,-0.73 -0.26,-1.59 -0.97,-2.53zm-7.45 9.93l0 0 -0.04 0.08 -0.01 0 0 0.01 -0.1 0.18 -0.03 0.06 -0.04 0.08 -0.05 0.08 0 0.01 -0.04 0.07 -0.04 0.08 -0.04 0.09 0 0 -0.04 0.08 -0.04 0.08 -0.05 0.08 0 0.02 -0.04 0.07 -0.04 0.08 -0.04 0.08 0 0 -0.01 0.02 -0.07 0.16 -0.03 0.07 -0.04 0.09 -0.04 0.08 -0.01 0.02 -0.03 0.06 -0.03 0.09 -0.04 0.08 -0.03 0.08 -0.01 0.01 -0.03 0.08 -0.04 0.09 -0.01 0.02 -0.02 0.06 -0.04 0.09 -0.01 0.04 -0.04 0.1 -0.02 0.03 -0.03 0.08 -0.01 0.02 -0.03 0.1 -0.06 0.15 -0.03 0.07 -0.03 0.09 -0.03 0.09 0 0 -0.02 0.08 -0.01 0 -0.03 0.09 -0.01 0.04 -0.04 0.13 0 0 -0.03 0.09 -0.01 0.03 -0.04 0.12 0 0.02 -0.03 0.09 0 0 -0.05 0.17 -0.03 0.09 0 0 -0.03 0.14 -0.01 0.03 -0.03 0.09 -0.03 0.12 -0.03 0.13 -0.02 0.1 0 0 -0.02 0.09 -0.02 0.09 -0.01 0.06 -0.01 0.03 -0.02 0.09 0 0.03 -0.03 0.1 0 0.04 -0.02 0.09 -0.03 0.16 0 0.02c0.78,-0.02 1.5,-0.3 2.17,-0.77 0.67,-0.46 1.29,-1.11 1.89,-1.87 -0.22,0.02 -0.45,0.02 -0.67,0 -0.3,-0.02 -0.61,-0.07 -0.91,-0.15l-1.39 -0.34 1.43 0.11c0.74,0.06 1.47,-0.02 2.17,-0.43 0.66,-0.37 1.29,-1.04 1.88,-2.13 -0.37,0.12 -0.75,0.2 -1.15,0.25 -0.5,0.06 -1.02,0.07 -1.56,0.03l-1.84 -0.16zm-2.29 5.69l0 0 0.02 -0.13 0.01 -0.08 0 -0.02 0.04 -0.21 0.01 -0.07c0.01,-0.06 0.03,-0.13 0.04,-0.19l0.01 -0.03c0.01,-0.08 0.03,-0.15 0.04,-0.23l0.01 -0.02 0.05 -0.22 0.01 -0.03c0.01,-0.07 0.03,-0.14 0.05,-0.22l0.01 -0.03 0.05 -0.2 0.02 -0.06 0.05 -0.18 0.02 -0.06 0.06 -0.2 0.01 -0.04c0.05,-0.16 0.1,-0.31 0.16,-0.46l0 -0.01 0.08 -0.22 0.01 -0.03 0.08 -0.21 0.01 -0.04 0.09 -0.21 0 -0.02 0.08 -0.2 0.03 -0.05c0.09,-0.23 0.19,-0.45 0.29,-0.67l0.02 -0.04c0.29,-0.62 0.61,-1.24 0.96,-1.83l0 0 0.12 -0.22 0.01 -0.01c0.17,-0.3 0.35,-0.59 0.54,-0.88l0 0c0.09,-0.15 0.18,-0.29 0.28,-0.43l0.01 -0.02c0.09,-0.13 0.18,-0.26 0.26,-0.39l0.06 -0.08 0.1 -0.15 0.01 -0.01 0.13 -0.19 0.02 -0.03c0.14,-0.2 0.28,-0.4 0.43,-0.59l0.01 -0.02 0.14 -0.19 0 0 0.09 -0.12 0.06 -0.08 0.02 -0.03 0.11 -0.15 0.02 -0.02 0.08 -0.1 0.07 -0.09 0.01 -0.02 0.12 -0.16 0.02 -0.02 0.07 -0.09 0.08 -0.1 0.01 -0.01 0.27 -0.34 0.01 -0.03 0.06 -0.07 0.09 -0.11 0.06 -0.07 0.09 -0.12 0.05 -0.06 0.1 -0.12 0.04 -0.05 0.1 -0.13 0.05 -0.05 0.1 -0.12 0.04 -0.05 0.1 -0.13 0.04 -0.04 0.11 -0.13 0.03 -0.04 0.11 -0.13 0.02 -0.03 0.12 -0.14 0.02 -0.02 0.12 -0.14 0.02 -0.02 0.25 -0.31 0.01 -0.01 0.13 -0.14 0 -0.01 0.13 -0.15 0 0 0.13 -0.15 0 0 0.03 -0.04 0.04 -0.04 0.59 -0.7 -0.33 0.33c-3.44,3.55 -7.24,7.45 -8.4,14.1l0.43 -0.04c0.01,-0.1 0.02,-0.2 0.04,-0.29zm-0.16 0.53l-0.35 0.04c-0.04,0.22 -0.07,0.45 -0.1,0.68l0 0 0.45 -0.72zm-106.9 5.82l-3.99 0 -5.62 -7 -0.71 7 -3.06 0 1.59 -15.81 3.06 0 -0.71 7.05 7.18 -7.05 3.63 0 -7.91 7.77 6.54 8.04zm17.1 -11.44l-4.99 11.46 -2.47 0 -1.58 -6.82 -2.96 6.82 -2.47 0 -2.7 -11.46 3 0 1.43 7.15 2.88 -7.15 2.53 0 1.45 7.15 2.88 -7.15 3 0zm12.51 5.71c-0.02,0.18 -0.05,0.37 -0.09,0.57 -0.04,0.2 -0.08,0.4 -0.13,0.61l-9.13 0c0.07,0.33 0.19,0.65 0.35,0.94 0.16,0.3 0.37,0.56 0.62,0.77 0.26,0.22 0.55,0.39 0.89,0.52 0.34,0.12 0.72,0.19 1.14,0.19 0.51,0 1.03,-0.09 1.57,-0.27 0.53,-0.18 0.98,-0.42 1.35,-0.72l1.62 1.8c-0.85,0.59 -1.67,1.01 -2.45,1.25 -0.78,0.24 -1.59,0.37 -2.44,0.37 -0.85,0 -1.64,-0.16 -2.35,-0.48 -0.71,-0.31 -1.31,-0.74 -1.81,-1.28 -0.49,-0.54 -0.86,-1.18 -1.1,-1.91 -0.24,-0.73 -0.32,-1.51 -0.24,-2.34 0.09,-0.83 0.32,-1.61 0.71,-2.34 0.39,-0.74 0.89,-1.37 1.5,-1.91 0.61,-0.54 1.29,-0.97 2.06,-1.29 0.77,-0.31 1.58,-0.47 2.42,-0.47 0.81,0 1.56,0.15 2.27,0.44 0.71,0.3 1.32,0.71 1.83,1.24 0.52,0.53 0.9,1.16 1.16,1.89 0.25,0.73 0.34,1.54 0.25,2.42zm-2.87 -1.11c-0.16,-0.72 -0.5,-1.31 -1.02,-1.75 -0.53,-0.44 -1.16,-0.66 -1.88,-0.66 -0.72,0 -1.38,0.22 -1.99,0.66 -0.61,0.44 -1.06,1.03 -1.36,1.75l6.25 0zm16.45 1.11c-0.02,0.18 -0.05,0.37 -0.09,0.57 -0.04,0.2 -0.08,0.4 -0.13,0.61l-9.13 0c0.07,0.33 0.19,0.65 0.35,0.94 0.16,0.3 0.37,0.56 0.62,0.77 0.26,0.22 0.55,0.39 0.89,0.52 0.34,0.12 0.71,0.19 1.14,0.19 0.51,0 1.03,-0.09 1.56,-0.27 0.54,-0.18 0.99,-0.42 1.36,-0.72l1.62 1.8c-0.85,0.59 -1.67,1.01 -2.45,1.25 -0.78,0.24 -1.59,0.37 -2.44,0.37 -0.85,0 -1.64,-0.16 -2.35,-0.48 -0.71,-0.31 -1.32,-0.74 -1.81,-1.28 -0.49,-0.54 -0.86,-1.18 -1.1,-1.91 -0.24,-0.73 -0.32,-1.51 -0.24,-2.34 0.08,-0.83 0.32,-1.61 0.71,-2.34 0.39,-0.74 0.89,-1.37 1.5,-1.91 0.6,-0.54 1.29,-0.97 2.06,-1.29 0.77,-0.31 1.58,-0.47 2.42,-0.47 0.8,0 1.56,0.15 2.27,0.44 0.71,0.3 1.32,0.71 1.83,1.24 0.51,0.53 0.9,1.16 1.16,1.89 0.25,0.73 0.33,1.54 0.25,2.42zm-2.88 -1.11c-0.15,-0.72 -0.49,-1.31 -1.02,-1.75 -0.53,-0.44 -1.15,-0.66 -1.88,-0.66 -0.71,0 -1.37,0.22 -1.98,0.66 -0.61,0.44 -1.07,1.03 -1.36,1.75l6.24 0zm14.95 6.84l-3.38 0 -4.07 -5.12 -0.52 5.12 -2.9 0 1.65 -16.38 2.9 0 -0.99 9.8 4.48 -4.84 3.32 0 -5.24 5.55 4.75 5.87zm9.69 -3.2c-0.06,0.56 -0.24,1.07 -0.55,1.51 -0.31,0.44 -0.69,0.81 -1.14,1.11 -0.45,0.29 -0.95,0.52 -1.5,0.67 -0.54,0.15 -1.07,0.23 -1.58,0.23 -0.88,0 -1.66,-0.17 -2.36,-0.49 -0.7,-0.32 -1.3,-0.84 -1.78,-1.55l1.9 -1.74c0.3,0.44 0.66,0.78 1.08,1.02 0.42,0.24 0.89,0.36 1.41,0.36 0.44,0 0.83,-0.08 1.14,-0.24 0.31,-0.17 0.48,-0.41 0.52,-0.74 0.03,-0.35 -0.15,-0.63 -0.55,-0.86 -0.4,-0.23 -0.97,-0.46 -1.71,-0.69 -0.43,-0.13 -0.85,-0.29 -1.25,-0.5 -0.4,-0.2 -0.75,-0.45 -1.05,-0.75 -0.3,-0.3 -0.53,-0.64 -0.69,-1.02 -0.16,-0.38 -0.22,-0.82 -0.16,-1.32 0.05,-0.56 0.23,-1.05 0.53,-1.49 0.3,-0.45 0.68,-0.81 1.12,-1.11 0.45,-0.3 0.95,-0.52 1.49,-0.68 0.54,-0.16 1.09,-0.24 1.63,-0.24 1.74,0 3.1,0.66 4.08,1.98l-1.88 1.72c-0.29,-0.41 -0.63,-0.74 -1.03,-0.97 -0.39,-0.24 -0.84,-0.36 -1.34,-0.36 -0.17,0 -0.36,0.03 -0.55,0.07 -0.2,0.05 -0.38,0.11 -0.56,0.2 -0.17,0.08 -0.32,0.2 -0.44,0.33 -0.12,0.14 -0.18,0.3 -0.2,0.47 -0.03,0.3 0.14,0.57 0.52,0.79 0.38,0.22 0.94,0.45 1.66,0.67 0.48,0.15 0.92,0.33 1.33,0.55 0.41,0.23 0.77,0.49 1.07,0.79 0.3,0.29 0.53,0.63 0.68,1 0.15,0.38 0.2,0.8 0.16,1.28zm42.49 3.2l-3.31 0 0.35 -3.54 3.54 0 -0.36 3.54 -0.22 0zm-2.76 -0.5l2.54 0 0.25 -2.54 -2.54 0 -0.25 2.54z"/>
 </g>
</svg>
