<svg id="aa03ddf9-f8f2-4819-a4ce-be9b0a220741" data-name="Layer 1"
  xmlns="http://www.w3.org/2000/svg"
  xmlns:xlink="http://www.w3.org/1999/xlink" viewBox="65.66666667 50.70529283 373.85574464 340.56159571" width="700" height="636.99">
  <title>server</title>
  <defs>
    <path d="M280.71 51.71c-86.05 0-155.81 71.33-155.81 159.32 0 88 69.76 159.33 155.81 159.33s155.81-71.33 155.81-159.33c0-87.99-69.76-159.32-155.81-159.32z" id="a"/>
    <path d="M66.67 89.96c0 57.97 35.56 104.88 79.51 104.88" id="b"/>
    <path d="M146.18 194.84c0-58.62 39.69-106.06 88.74-106.06" id="c"/>
    <path d="M95.48 95.22c0 55.06 22.68 99.62 50.7 99.62" id="d"/>
    <path d="M146.18 194.84c0-74.91 45.87-135.52 102.56-135.52" id="e"/>
    <path d="M348.74 369.24c0 10.51-61.24 19.03-136.79 19.03-75.55 0-136.79-8.52-136.79-19.03 0-10.51 61.24-19.03 136.79-19.03 75.55 0 136.79 8.52 136.79 19.03z" id="f"/>
    <path d="M326.8 369.24c0 8.82-51.42 15.97-114.85 15.97-63.43 0-114.85-7.15-114.85-15.97 0-8.83 51.42-15.98 114.85-15.98 63.43 0 114.85 7.15 114.85 15.98z" id="g"/>
    <path d="M298.27 170.64v181.02H146.11V170.64h152.16z" id="h"/>
    <path d="M313.63 152.69v64.33H130.75v-64.33h182.88z" id="i"/>
    <path d="M313.63 228.98v64.33H130.75v-64.33h182.88z" id="j"/>
    <path d="M313.63 305.28v64.33H130.75v-64.33h182.88z" id="k"/>
    <path d="M277.05 163.91v11.97h-11.7v-11.97h11.7z" id="l"/>
    <path d="M293.88 163.91v11.97h-11.71v-11.97h11.71z" id="m"/>
    <path d="M310.7 163.91v11.97H299v-11.97h11.7z" id="n"/>
    <path d="M277.05 239.46v11.97h-11.7v-11.97h11.7z" id="o"/>
    <path d="M293.88 239.46v11.97h-11.71v-11.97h11.71z" id="p"/>
    <path d="M310.7 239.46v11.97H299v-11.97h11.7z" id="q"/>
    <path d="M277.05 315.01v11.96h-11.7v-11.96h11.7z" id="r"/>
    <path d="M293.88 315.01v11.96h-11.71v-11.96h11.71z" id="s"/>
    <path d="M310.7 315.01v11.96H299v-11.96h11.7z" id="t"/>
  </defs>
  <use xlink:href="#a" fill="#f2f2f2"/>
  <use xlink:href="#a" fill-opacity="0" stroke="#000" stroke-opacity="0"/>
  <use xlink:href="#b" fill="#2f2e41"/>
  <use xlink:href="#b" fill-opacity="0" stroke="#000" stroke-opacity="0"/>
  <use xlink:href="#c" fill="#d93"/>
  <use xlink:href="#c" fill-opacity="0" stroke="#000" stroke-opacity="0"/>
  <use xlink:href="#d" fill="#d93"/>
  <use xlink:href="#d" fill-opacity="0" stroke="#000" stroke-opacity="0"/>
  <use xlink:href="#e" fill="#2f2e41"/>
  <use xlink:href="#e" fill-opacity="0" stroke="#000" stroke-opacity="0"/>
  <use xlink:href="#f" fill="#3f3d56"/>
  <use xlink:href="#f" fill-opacity="0" stroke="#000" stroke-opacity="0"/>
  <use xlink:href="#g"/>
  <use xlink:href="#g" fill-opacity="0" stroke="#000" stroke-opacity="0"/>
  <use xlink:href="#h" fill="#2f2e41"/>
  <use xlink:href="#h" fill-opacity="0" stroke="#000" stroke-opacity="0"/>
  <use xlink:href="#i" fill="#3f3d56"/>
  <use xlink:href="#i" fill-opacity="0" stroke="#000" stroke-opacity="0"/>
  <use xlink:href="#j" fill="#3f3d56"/>
  <use xlink:href="#j" fill-opacity="0" stroke="#000" stroke-opacity="0"/>
  <g>
    <use xlink:href="#k" fill="#3f3d56"/>
    <use xlink:href="#k" fill-opacity="0" stroke="#000" stroke-opacity="0"/>
  </g>
  <g>
    <use xlink:href="#l" fill="#d93"/>
    <use xlink:href="#l" fill-opacity="0" stroke="#000" stroke-opacity="0"/>
  </g>
  <g>
    <use xlink:href="#m" fill="#d93"/>
    <use xlink:href="#m" fill-opacity="0" stroke="#000" stroke-opacity="0"/>
  </g>
  <g>
    <use xlink:href="#n" fill="#d93"/>
    <use xlink:href="#n" fill-opacity="0" stroke="#000" stroke-opacity="0"/>
  </g>
  <g>
    <use xlink:href="#o" fill="#d93"/>
    <use xlink:href="#o" fill-opacity="0" stroke="#000" stroke-opacity="0"/>
  </g>
  <g>
    <use xlink:href="#p" fill="#d93"/>
    <use xlink:href="#p" fill-opacity="0" stroke="#000" stroke-opacity="0"/>
  </g>
  <g>
    <use xlink:href="#q" fill="#d93"/>
    <use xlink:href="#q" fill-opacity="0" stroke="#000" stroke-opacity="0"/>
  </g>
  <g>
    <use xlink:href="#r" fill="#d93"/>
    <use xlink:href="#r" fill-opacity="0" stroke="#000" stroke-opacity="0"/>
  </g>
  <g>
    <use xlink:href="#s" fill="#d93"/>
    <use xlink:href="#s" fill-opacity="0" stroke="#000" stroke-opacity="0"/>
  </g>
  <g>
    <use xlink:href="#t" fill="#d93"/>
    <use xlink:href="#t" fill-opacity="0" stroke="#000" stroke-opacity="0"/>
  </g>
</svg>
